<svg width="50" height="42" viewBox="0 0 50 42" fill="none" xmlns="http://www.w3.org/2000/svg">
<path d="M31.5423 0.00979035C26.1727 0.174742 19.3604 2.47181 12.1375 8.73786C-2.6197 21.4919 0.219149 31.6427 0.219149 31.6427C0.219149 31.6427 -1.31407 22.7633 12.6765 10.655C19.9593 4.35869 28.9789 2.29019 34.5368 6.97206C39.5198 11.1696 38.7771 18.2731 30.3445 25.5381C27.0864 28.1212 23.6007 25.8307 27.0504 22.7633C27.4347 22.4396 27.7717 22.1194 28.0686 21.8047C31.2762 18.6232 33.7461 13.7222 29.9252 10.5036C25.3256 6.46755 17.5038 11.1696 14.054 14.237C3.12987 23.7622 2.8903 33.9231 9.02317 39.4122C13.2395 42.964 24.7506 44.3867 37.5913 33.4085C52.3485 20.6544 49.5097 10.5036 49.5097 10.5036C49.5097 10.5036 51.0429 19.3831 37.0523 31.4914C29.7695 37.7877 20.7499 39.9066 15.192 35.2248C10.209 31.0272 10.9517 23.9237 19.3844 16.6587C22.8341 13.9142 26.3078 16.1643 22.858 19.2317C22.4738 19.5554 22.1368 19.8756 21.8399 20.1903C18.6323 23.3718 16.1624 28.2728 19.9833 31.4914C24.5829 35.5275 32.2131 30.664 35.8545 27.758C46.9703 18.2328 47.0182 8.0719 40.8853 2.5828C39.0407 1.02891 35.7186 -0.118506 31.5423 0.00979035Z" fill="white"/>
</svg>
